# xmcd
#
# Track frame offsets:
#	150
#	12075
#	30387
#	47137
#	65367
#	77152
#	94037
#	111630
#	132410
#	148035
#	162900
#	175582
#	190787
#	202740
#	223347
#
# Disc length: 3195 seconds
#
# Revision: 1
# Processed by: cddbd v1.5.1PL2 Copyright (c) Steve Scherf et al.
# Submitted via: audiograbber 1.83.01
#
DISCID=ce0c790f
DTITLE=Music Maestro - MM6276
DYEAR=1900
DGENRE=Karaoke
TTITLE0=Yoakam, Dwight - Crazy Little Thing Called Love
TTITLE1=Stone, Doug - Make Up In Love
TTITLE2=Austin, Sherrie - Never Been Kissed
TTITLE3=Gill, Vince and Patty Loveless - My Kind Of Woman/My Kind Of Man
TTITLE4=Warren Brothers, The - She Wants To Rock
TTITLE5=Brock, Chad - Lightning Does The Work
TTITLE6=Clark, Terri - Unsung Hero
TTITLE7=Jackson, Alan - Little Man
TTITLE8=Montgomery Gentry - Lonely And Gone
TTITLE9=Tippin, Aaron - Her
TTITLE10=Womack, Lee Ann - Now You See Me Now You Don't
TTITLE11=McCoy, Neal - Girls Of Summer, The
TTITLE12=Reeves, Julie - Trouble Is A Woman
TTITLE13=Wills, Mark - She's In Love
TTITLE14=Twain, Shania - You've Got A Way
EXTD=As Listed In KJ Pro
EXTT0=
EXTT1=
EXTT2=
EXTT3=
EXTT4=
EXTT5=
EXTT6=
EXTT7=
EXTT8=
EXTT9=
EXTT10=
EXTT11=
EXTT12=
EXTT13=
EXTT14=
PLAYORDER=
